<svg width="17" height="22" viewBox="0 0 17 22" fill="none" xmlns="http://www.w3.org/2000/svg">
<g id="Group 17">
<path id="Vector" d="M8.49999 12.7275C7.73583 12.7275 6.98884 12.5009 6.35347 12.0764C5.7181 11.6518 5.22289 11.0484 4.93046 10.3424C4.63803 9.63644 4.56151 8.85959 4.71059 8.11012C4.85967 7.36065 5.22765 6.67222 5.76799 6.13188C6.30833 5.59154 6.99676 5.22356 7.74623 5.07448C8.4957 4.92541 9.27255 5.00192 9.97854 5.29435C10.6845 5.58678 11.2879 6.08199 11.7125 6.71736C12.137 7.35273 12.3636 8.09972 12.3636 8.86388C12.3624 9.8882 11.9549 10.8702 11.2306 11.5945C10.5063 12.3188 9.52431 12.7263 8.49999 12.7275ZM8.49999 6.5457C8.04149 6.5457 7.5933 6.68166 7.21208 6.93638C6.83085 7.19111 6.53373 7.55316 6.35827 7.97675C6.18281 8.40034 6.1369 8.86645 6.22635 9.31613C6.3158 9.76582 6.53658 10.1789 6.86079 10.5031C7.18499 10.8273 7.59805 11.0481 8.04773 11.1375C8.49742 11.227 8.96352 11.1811 9.38712 11.0056C9.81071 10.8301 10.1728 10.533 10.4275 10.1518C10.6822 9.77057 10.8182 9.32237 10.8182 8.86388C10.8176 8.24925 10.5731 7.65997 10.1385 7.22536C9.7039 6.79075 9.11462 6.54631 8.49999 6.5457Z" fill="black"/>
<path id="Vector_2" d="M8.5 22.0001L1.98128 14.3123C1.8907 14.1968 1.80106 14.0806 1.71237 13.9638C0.598857 12.497 -0.00269001 10.7053 9.04313e-06 8.86376C9.04313e-06 6.60942 0.895541 4.44742 2.4896 2.85336C4.08366 1.2593 6.24566 0.36377 8.5 0.36377C10.7543 0.36377 12.9163 1.2593 14.5104 2.85336C16.1045 4.44742 17 6.60942 17 8.86376C17.0027 10.7045 16.4014 12.4953 15.2884 13.9614L15.2876 13.9638C15.2876 13.9638 15.0558 14.2682 15.021 14.3092L8.5 22.0001ZM2.94564 13.0326C2.94719 13.0326 3.12646 13.2706 3.16741 13.3216L8.5 19.6108L13.8395 13.3131C13.8735 13.2706 14.0544 13.0311 14.0551 13.0303C14.9647 11.8319 15.4563 10.3683 15.4545 8.86376C15.4545 7.0193 14.7218 5.25039 13.4176 3.94616C12.1134 2.64193 10.3445 1.90922 8.5 1.90922C6.65554 1.90922 4.88663 2.64193 3.5824 3.94616C2.27817 5.25039 1.54546 7.0193 1.54546 8.86376C1.54384 10.3692 2.0352 11.8337 2.94564 13.0326Z" fill="black"/>
</g>
</svg>
