<svg width="17" height="21" viewBox="0 0 17 21" fill="none" xmlns="http://www.w3.org/2000/svg">
<path id="Vector" d="M12.4369 10.3688L10.3149 4.89125L8.52564 8.09375L6.73635 4.89125L4.61435 10.3705H4.0011V11.1939H7.19651V10.3705H6.72352L7.18368 9.00988L8.52564 11.2586L9.86761 9.00988L10.3278 10.3705H9.85478V11.1939H13.063V10.3705L12.4369 10.3688ZM17 8.69575C17.0005 7.55365 16.7811 6.42263 16.3541 5.36735C15.9271 4.31207 15.301 3.35323 14.5116 2.54564C13.7222 1.73805 12.785 1.09755 11.7535 0.660754C10.7219 0.223956 9.61638 -0.000573947 8.49998 1.10178e-06C3.80951 1.10178e-06 0 3.89638 0 8.69575C0 11.102 0.958793 13.272 2.49235 14.8409C2.58838 14.94 2.71105 15.0076 2.84477 15.0352C2.97848 15.0628 3.1172 15.0491 3.24327 14.9958C3.36935 14.9425 3.47709 14.8521 3.55279 14.736C3.62848 14.6199 3.66872 14.4834 3.66839 14.3439C3.66868 14.1532 3.59519 13.9701 3.46397 13.8346C2.1355 12.47 1.39101 10.6217 1.39414 8.69575C1.39414 4.68125 4.57586 1.41225 8.49998 1.41225C12.4241 1.41225 15.6195 4.68125 15.6195 8.69575C15.6216 9.65266 15.4386 10.6005 15.081 11.4848C14.7234 12.369 14.1983 13.1721 13.536 13.8477L7.52836 19.9929L8.49998 21L14.5204 14.8409C15.3093 14.0343 15.9344 13.0762 16.36 12.0216C16.7855 10.967 17.003 9.83668 17 8.69575Z" fill="black"/>
</svg>
