<svg width="18" height="14" viewBox="0 0 18 14" fill="none" xmlns="http://www.w3.org/2000/svg">
<path id="Vector" d="M13.302 2.8175C13.4298 2.94 13.5 3.10713 13.5 3.28125V5.46875C13.5 5.6428 13.4289 5.80972 13.3023 5.93279C13.1757 6.05586 13.004 6.125 12.825 6.125C12.646 6.125 12.4743 6.05586 12.3477 5.93279C12.2211 5.80972 12.15 5.6428 12.15 5.46875V4.865L10.602 6.37C10.5397 6.43265 10.4652 6.48261 10.3828 6.51696C10.3005 6.55132 10.2119 6.56938 10.1222 6.5701C10.0326 6.57081 9.94375 6.55417 9.86081 6.52113C9.77787 6.4881 9.70253 6.43934 9.63918 6.37769C9.57584 6.31604 9.52575 6.24275 9.49185 6.16208C9.45795 6.08142 9.44091 5.995 9.44173 5.90786C9.44255 5.82072 9.46122 5.73462 9.49663 5.65457C9.53204 5.57452 9.5835 5.50213 9.648 5.44162L11.196 3.9375H10.575C10.396 3.9375 10.2243 3.86836 10.0977 3.74529C9.97112 3.62222 9.9 3.4553 9.9 3.28125C9.9 3.1072 9.97112 2.94028 10.0977 2.81721C10.2243 2.69414 10.396 2.625 10.575 2.625H12.825C13.004 2.62515 13.1755 2.69439 13.302 2.8175ZM4.5 10.7188C4.5 10.8928 4.57112 11.0597 4.6977 11.1828C4.82429 11.3059 4.99598 11.375 5.175 11.375H7.4259C7.60492 11.375 7.77661 11.3059 7.9032 11.1828C8.02978 11.0597 8.1009 10.8928 8.1009 10.7188C8.1009 10.5447 8.02978 10.3778 7.9032 10.2547C7.77661 10.1316 7.60492 10.0625 7.4259 10.0625H6.8049L8.3529 8.5575C8.4758 8.43367 8.54376 8.26787 8.54213 8.09581C8.54051 7.92374 8.46944 7.75917 8.34423 7.63756C8.21902 7.51594 8.04969 7.447 7.87271 7.44559C7.69572 7.44417 7.52525 7.5104 7.398 7.63L5.85 9.13325V8.5295C5.85 8.35545 5.77888 8.18853 5.6523 8.06546C5.52571 7.94239 5.35402 7.87325 5.175 7.87325C4.99598 7.87325 4.82429 7.94239 4.6977 8.06546C4.57112 8.18853 4.5 8.35545 4.5 8.5295V10.717V10.7188ZM0 2.40625C0 1.76807 0.260758 1.15603 0.724911 0.704774C1.18906 0.253515 1.81859 0 2.475 0H15.525C16.1814 0 16.8109 0.253515 17.2751 0.704774C17.7392 1.15603 18 1.76807 18 2.40625V11.5938C18 11.9097 17.936 12.2226 17.8116 12.5146C17.6872 12.8065 17.5049 13.0718 17.2751 13.2952C17.0453 13.5187 16.7724 13.6959 16.4721 13.8168C16.1719 13.9378 15.85 14 15.525 14H2.475C2.14998 14 1.82814 13.9378 1.52786 13.8168C1.22758 13.6959 0.954736 13.5187 0.724911 13.2952C0.495086 13.0718 0.312779 12.8065 0.188398 12.5146C0.0640178 12.2226 0 11.9097 0 11.5938V2.40625ZM2.475 1.3125C1.854 1.3125 1.35 1.8025 1.35 2.40625V11.5938C1.35 12.1975 1.854 12.6875 2.475 12.6875H15.525C16.146 12.6875 16.65 12.1975 16.65 11.5938V2.40625C16.65 1.8025 16.146 1.3125 15.525 1.3125H2.475Z" fill="black"/>
</svg>
