<svg width="17" height="22" viewBox="0 0 17 22" fill="none" xmlns="http://www.w3.org/2000/svg">
<g id="Group 21">
<path id="Vector" d="M8.50035 12.364C7.7362 12.364 6.98921 12.1374 6.35383 11.7128C5.71846 11.2883 5.22325 10.6849 4.93082 9.9789C4.63839 9.27291 4.56188 8.49607 4.71096 7.7466C4.86004 6.99712 5.22801 6.30869 5.76835 5.76835C6.30869 5.22801 6.99712 4.86004 7.7466 4.71096C8.49607 4.56188 9.27292 4.63839 9.9789 4.93082C10.6849 5.22325 11.2883 5.71846 11.7128 6.35383C12.1374 6.98921 12.364 7.7362 12.364 8.50035C12.3628 9.52468 11.9553 10.5067 11.231 11.231C10.5067 11.9553 9.52468 12.3628 8.50035 12.364ZM8.50035 6.18217C8.04186 6.18217 7.59366 6.31813 7.21244 6.57286C6.83122 6.82758 6.53409 7.18963 6.35863 7.61322C6.18318 8.03682 6.13727 8.50292 6.22672 8.95261C6.31616 9.40229 6.53695 9.81535 6.86115 10.1396C7.18536 10.4638 7.59842 10.6845 8.0481 10.774C8.49778 10.8634 8.96389 10.8175 9.38748 10.6421C9.81107 10.4666 10.1731 10.1695 10.4278 9.78826C10.6826 9.40704 10.8185 8.95885 10.8185 8.50035C10.8179 7.88572 10.5735 7.29644 10.1389 6.86183C9.70427 6.42722 9.11498 6.18279 8.50035 6.18217Z" fill="black"/>
<path id="Vector_2" d="M8.5 21.6363L1.98128 13.9485C1.8907 13.833 1.80106 13.7169 1.71237 13.6C0.598857 12.1332 -0.00269001 10.3416 9.04313e-06 8.49999C9.04313e-06 6.24565 0.895541 4.08365 2.4896 2.48959C4.08366 0.895532 6.24566 0 8.5 0C10.7543 0 12.9163 0.895532 14.5104 2.48959C16.1045 4.08365 17 6.24565 17 8.49999C17.0027 10.3407 16.4014 12.1315 15.2884 13.5977L15.2876 13.6C15.2876 13.6 15.0558 13.9044 15.021 13.9454L8.5 21.6363ZM2.94564 12.6689C2.94719 12.6689 3.12646 12.9068 3.16741 12.9578L8.5 19.2471L13.8395 12.9493C13.8735 12.9068 14.0544 12.6673 14.0551 12.6665C14.9647 11.4681 15.4563 10.0045 15.4545 8.49999C15.4545 6.65553 14.7218 4.88662 13.4176 3.58239C12.1134 2.27816 10.3445 1.54545 8.5 1.54545C6.65554 1.54545 4.88663 2.27816 3.5824 3.58239C2.27817 4.88662 1.54546 6.65553 1.54546 8.49999C1.54384 10.0054 2.0352 11.4699 2.94564 12.6689Z" fill="black"/>
</g>
</svg>
