<svg width="40" height="40" viewBox="0 0 40 40" fill="none" xmlns="http://www.w3.org/2000/svg">
<g id="Group 1000004842">
<circle id="Ellipse 18" cx="20" cy="20" r="20" fill="white"/>
<g id="Group 1000004803">
<path id="Vector" d="M22.1323 17.0144H18.7204V13.6025H17.0144V17.0144H13.6025V18.7204H17.0144V22.1323H18.7204V18.7204H22.1323V17.0144Z" fill="#2C2C2C"/>
<path id="Vector_2" d="M25.0735 23.8379C26.4808 22.1668 27.2518 20.0518 27.2503 17.8671C27.2503 16.0114 26.7 14.1973 25.669 12.6543C24.638 11.1114 23.1727 9.90875 21.4582 9.1986C19.7437 8.48844 17.8572 8.30263 16.0371 8.66467C14.217 9.0267 12.5452 9.92032 11.233 11.2325C9.92081 12.5447 9.02719 14.2165 8.66515 16.0366C8.30312 17.8567 8.48893 19.7432 9.19908 21.4577C9.90924 23.1722 11.1118 24.6376 12.6548 25.6685C14.1978 26.6995 16.0119 27.2498 17.8676 27.2498C20.0523 27.2513 22.1672 26.4803 23.8384 25.073L30.3091 31.5147L31.5152 30.3086L25.0735 23.8379ZM17.8676 25.5439C16.3493 25.5439 14.865 25.0936 13.6026 24.2501C12.3402 23.4066 11.3562 22.2076 10.7752 20.8049C10.1941 19.4021 10.0421 17.8586 10.3383 16.3694C10.6345 14.8803 11.3657 13.5124 12.4393 12.4388C13.5129 11.3652 14.8808 10.634 16.3699 10.3378C17.8591 10.0416 19.4026 10.1937 20.8054 10.7747C22.2081 11.3557 23.4071 12.3397 24.2506 13.6021C25.0941 14.8645 25.5444 16.3488 25.5444 17.8671C25.5421 19.9024 24.7326 21.8537 23.2934 23.2929C21.8542 24.7321 19.9029 25.5416 17.8676 25.5439Z" fill="#2C2C2C"/>
</g>
</g>
</svg>
