<svg width="43" height="40" viewBox="0 0 43 40" fill="none" xmlns="http://www.w3.org/2000/svg">
<path id="Vector" d="M18.49 7.99202L19.5455 6.81173V13.9935C19.5455 14.5241 19.7514 15.0329 20.1179 15.4081C20.4845 15.7832 20.9816 15.994 21.5 15.994C22.0184 15.994 22.5155 15.7832 22.8821 15.4081C23.2486 15.0329 23.4545 14.5241 23.4545 13.9935V6.81173L24.51 7.912C24.6874 8.1171 24.9041 8.28271 25.1466 8.39859C25.3891 8.51446 25.6523 8.57812 25.9199 8.58562C26.1874 8.59312 26.4536 8.54431 26.7019 8.4422C26.9503 8.34009 27.1755 8.18686 27.3636 7.99202C27.5468 7.80605 27.6922 7.58479 27.7915 7.34101C27.8907 7.09723 27.9418 6.83575 27.9418 6.57167C27.9418 6.30758 27.8907 6.0461 27.7915 5.80232C27.6922 5.55854 27.5468 5.33728 27.3636 5.15131L22.8877 0.570169C22.7018 0.388043 22.4827 0.245277 22.2427 0.150064C21.7669 -0.0500215 21.2331 -0.0500215 20.7573 0.150064C20.5173 0.245277 20.2982 0.388043 20.1123 0.570169L15.6364 5.07129C15.2579 5.4586 15.0454 5.98391 15.0454 6.53166C15.0454 7.0794 15.2579 7.60471 15.6364 7.99202C16.0148 8.37933 16.528 8.59692 17.0632 8.59692C17.5983 8.59692 18.1116 8.37933 18.49 7.99202ZM21.5 19.995C20.3403 19.995 19.2066 20.347 18.2423 21.0064C17.2781 21.6659 16.5265 22.6032 16.0827 23.6998C15.6389 24.7965 15.5228 26.0032 15.749 27.1673C15.9753 28.3315 16.5337 29.4009 17.3538 30.2402C18.1738 31.0795 19.2186 31.6511 20.3561 31.8827C21.4935 32.1143 22.6725 31.9954 23.7439 31.5412C24.8154 31.0869 25.7311 30.3177 26.3754 29.3308C27.0197 28.3438 27.3636 27.1835 27.3636 25.9965C27.3636 24.4048 26.7459 22.8783 25.6462 21.7528C24.5466 20.6273 23.0551 19.995 21.5 19.995ZM21.5 27.997C21.1134 27.997 20.7355 27.8797 20.4141 27.6599C20.0927 27.44 19.8422 27.1276 19.6942 26.7621C19.5463 26.3965 19.5076 25.9943 19.583 25.6062C19.6584 25.2182 19.8446 24.8617 20.1179 24.5819C20.3913 24.3022 20.7395 24.1116 21.1187 24.0344C21.4978 23.9573 21.8908 23.9969 22.248 24.1483C22.6051 24.2997 22.9104 24.5561 23.1251 24.8851C23.3399 25.2141 23.4545 25.6008 23.4545 25.9965C23.4545 26.5271 23.2486 27.0359 22.8821 27.4111C22.5155 27.7862 22.0184 27.997 21.5 27.997ZM7.81818 25.9965C7.81818 26.3922 7.93281 26.7789 8.14758 27.1079C8.36235 27.4369 8.66761 27.6933 9.02476 27.8447C9.3819 27.9961 9.7749 28.0358 10.154 27.9586C10.5332 27.8814 10.8815 27.6908 11.1548 27.4111C11.4281 27.1313 11.6143 26.7748 11.6897 26.3868C11.7651 25.9987 11.7264 25.5965 11.5785 25.2309C11.4306 24.8654 11.18 24.553 10.8586 24.3332C10.5372 24.1133 10.1593 23.996 9.77273 23.996C9.25435 23.996 8.7572 24.2068 8.39066 24.5819C8.02411 24.9571 7.81818 25.4659 7.81818 25.9965ZM35.1818 25.9965C35.1818 25.6008 35.0672 25.2141 34.8524 24.8851C34.6377 24.5561 34.3324 24.2997 33.9752 24.1483C33.6181 23.9969 33.2251 23.9573 32.846 24.0344C32.4668 24.1116 32.1185 24.3022 31.8452 24.5819C31.5719 24.8617 31.3857 25.2182 31.3103 25.6062C31.2349 25.9943 31.2736 26.3965 31.4215 26.7621C31.5694 27.1276 31.82 27.44 32.1414 27.6599C32.4628 27.8797 32.8407 27.997 33.2273 27.997C33.7457 27.997 34.2428 27.7862 34.6093 27.4111C34.9759 27.0359 35.1818 26.5271 35.1818 25.9965ZM37.1364 11.993H29.3182C28.7998 11.993 28.3027 12.2038 27.9361 12.579C27.5696 12.9541 27.3636 13.463 27.3636 13.9935C27.3636 14.5241 27.5696 15.0329 27.9361 15.4081C28.3027 15.7832 28.7998 15.994 29.3182 15.994H37.1364C37.6547 15.994 38.1519 16.2048 38.5184 16.5799C38.885 16.9551 39.0909 17.4639 39.0909 17.9945V33.9985C39.0909 34.5291 38.885 35.0379 38.5184 35.4131C38.1519 35.7882 37.6547 35.999 37.1364 35.999H5.86364C5.34526 35.999 4.84811 35.7882 4.48156 35.4131C4.11502 35.0379 3.90909 34.5291 3.90909 33.9985V17.9945C3.90909 17.4639 4.11502 16.9551 4.48156 16.5799C4.84811 16.2048 5.34526 15.994 5.86364 15.994H13.6818C14.2002 15.994 14.6973 15.7832 15.0639 15.4081C15.4304 15.0329 15.6364 14.5241 15.6364 13.9935C15.6364 13.463 15.4304 12.9541 15.0639 12.579C14.6973 12.2038 14.2002 11.993 13.6818 11.993H5.86364C4.3085 11.993 2.81706 12.6253 1.71742 13.7508C0.617774 14.8763 0 16.4028 0 17.9945V33.9985C0 35.5902 0.617774 37.1167 1.71742 38.2422C2.81706 39.3677 4.3085 40 5.86364 40H37.1364C38.6915 40 40.1829 39.3677 41.2826 38.2422C42.3822 37.1167 43 35.5902 43 33.9985V17.9945C43 16.4028 42.3822 14.8763 41.2826 13.7508C40.1829 12.6253 38.6915 11.993 37.1364 11.993Z" fill="#E0E6CF"/>
</svg>
