<svg width="44" height="40" viewBox="0 0 44 40" fill="none" xmlns="http://www.w3.org/2000/svg">
<path id="Vector" d="M6.28571 4.73684C6.28571 3.48055 6.7824 2.27572 7.6665 1.38739C8.5506 0.499059 9.74969 0 11 0H30.9048C32.1551 0 33.3542 0.499059 34.2383 1.38739C35.1224 2.27572 35.619 3.48055 35.619 4.73684V23.1579H44V31.0526C44 31.9512 43.8239 32.8409 43.4817 33.671C43.1395 34.5011 42.6379 35.2554 42.0055 35.8907C41.3732 36.5261 40.6225 37.0301 39.7964 37.3739C38.9702 37.7178 38.0847 37.8947 37.1905 37.8947H25.0381C25.1072 37.5537 25.1429 37.2021 25.1429 36.8421V34.7368H32.4762V4.73684C32.4762 4.31808 32.3106 3.91647 32.0159 3.62036C31.7212 3.32425 31.3215 3.15789 30.9048 3.15789H11C10.5832 3.15789 10.1835 3.32425 9.88883 3.62036C9.59413 3.91647 9.42857 4.31808 9.42857 4.73684V23.1579H6.28571V4.73684ZM35.619 34.7368H37.1905C38.1629 34.7368 39.0956 34.3487 39.7832 33.6578C40.4708 32.9668 40.8571 32.0297 40.8571 31.0526V26.3158H35.619V34.7368ZM15.1905 8.42105C14.7737 8.42105 14.374 8.58741 14.0793 8.88352C13.7846 9.17963 13.619 9.58124 13.619 10C13.619 10.4188 13.7846 10.8204 14.0793 11.1165C14.374 11.4126 14.7737 11.5789 15.1905 11.5789H26.7143C27.1311 11.5789 27.5308 11.4126 27.8255 11.1165C28.1202 10.8204 28.2857 10.4188 28.2857 10C28.2857 9.58124 28.1202 9.17963 27.8255 8.88352C27.5308 8.58741 27.1311 8.42105 26.7143 8.42105H15.1905ZM13.619 18.4211C13.619 18.0023 13.7846 17.6007 14.0793 17.3046C14.374 17.0085 14.7737 16.8421 15.1905 16.8421H26.7143C27.1311 16.8421 27.5308 17.0085 27.8255 17.3046C28.1202 17.6007 28.2857 18.0023 28.2857 18.4211C28.2857 18.8398 28.1202 19.2414 27.8255 19.5375C27.5308 19.8336 27.1311 20 26.7143 20H15.1905C14.7737 20 14.374 19.8336 14.0793 19.5375C13.7846 19.2414 13.619 18.8398 13.619 18.4211ZM3.14286 25.2632C2.30932 25.2632 1.50992 25.5959 0.920522 26.1881C0.331122 26.7803 0 27.5835 0 28.4211V36.8421C0 37.6796 0.331122 38.4829 0.920522 39.0751C1.50992 39.6673 2.30932 40 3.14286 40H19.9048C20.7383 40 21.5377 39.6673 22.1271 39.0751C22.7165 38.4829 23.0476 37.6796 23.0476 36.8421V28.4211C23.0476 27.5835 22.7165 26.7803 22.1271 26.1881C21.5377 25.5959 20.7383 25.2632 19.9048 25.2632H3.14286ZM18.8571 27.3684C18.8571 27.9268 19.0779 28.4623 19.4708 28.8571C19.8638 29.2519 20.3967 29.4737 20.9524 29.4737V31.5789C19.841 31.5789 18.7751 31.1353 17.9893 30.3457C17.2034 29.5561 16.7619 28.4851 16.7619 27.3684H18.8571ZM16.7619 37.8947C16.7619 36.778 17.2034 35.7071 17.9893 34.9174C18.7751 34.1278 19.841 33.6842 20.9524 33.6842V35.7895C20.3967 35.7895 19.8638 36.0113 19.4708 36.4061C19.0779 36.8009 18.8571 37.3364 18.8571 37.8947H16.7619ZM2.09524 29.4737C2.65093 29.4737 3.18386 29.2519 3.5768 28.8571C3.96973 28.4623 4.19048 27.9268 4.19048 27.3684H6.28571C6.28571 28.4851 5.84422 29.5561 5.05835 30.3457C4.27249 31.1353 3.20662 31.5789 2.09524 31.5789V29.4737ZM2.09524 33.6842C3.20662 33.6842 4.27249 34.1278 5.05835 34.9174C5.84422 35.7071 6.28571 36.778 6.28571 37.8947H4.19048C4.19048 37.3364 3.96973 36.8009 3.5768 36.4061C3.18386 36.0113 2.65093 35.7895 2.09524 35.7895V33.6842ZM11.5238 28.9474C12.4963 28.9474 13.4289 29.3355 14.1165 30.0265C14.8042 30.7174 15.1905 31.6545 15.1905 32.6316C15.1905 33.6087 14.8042 34.5458 14.1165 35.2367C13.4289 35.9276 12.4963 36.3158 11.5238 36.3158C10.5513 36.3158 9.61872 35.9276 8.93109 35.2367C8.24345 34.5458 7.85714 33.6087 7.85714 32.6316C7.85714 31.6545 8.24345 30.7174 8.93109 30.0265C9.61872 29.3355 10.5513 28.9474 11.5238 28.9474Z" fill="#E0E6CF"/>
</svg>
