<svg width="160" height="52" viewBox="0 0 160 52" fill="none" xmlns="http://www.w3.org/2000/svg">
<path d="M14.0516 12.2488C17.8252 12.2488 20.4516 12.9052 21.9307 14.2179C23.4098 15.5121 24.1493 17.3425 24.1493 19.7091C24.1493 21.3361 23.8554 22.7228 23.2676 23.8691C22.6797 24.9969 21.6462 25.8844 20.1671 26.5315C18.688 27.1601 16.6495 27.4744 14.0516 27.4744H8.13512V32.3555H1.13779C1.28949 28.7686 1.36534 25.4129 1.36534 22.2883C1.36534 19.1637 1.28949 15.8079 1.13779 12.2211H8.13512V12.2488H14.0516ZM12.0605 22.1219C13.6344 22.1219 14.8101 22.0664 15.5876 21.9555C16.384 21.8261 16.9339 21.6042 17.2373 21.2899C17.5597 20.9756 17.7209 20.5133 17.7209 19.9032C17.7209 19.2931 17.5692 18.8401 17.2658 18.5443C16.9813 18.23 16.4409 18.0173 15.6445 17.9064C14.867 17.7955 13.6723 17.74 12.0605 17.74H8.13512V22.1219H12.0605ZM49.2565 18.9325C49.2565 20.5411 48.8488 21.9 48.0334 23.0093C47.2369 24.1187 45.8621 24.9229 43.9089 25.4221C44.1365 25.718 44.2977 25.9491 44.3925 26.1155L49.0005 32.3555H41.2636C40.4292 30.8394 39.1113 28.6947 37.3098 25.9213H33.1285V32.3555H26.4156C26.5673 28.7686 26.6432 25.4129 26.6432 22.2883C26.6432 19.1637 26.5673 15.8079 26.4156 12.2211H33.1285V12.2488H38.9596C42.7901 12.2488 45.4639 12.8497 46.9809 14.0515C48.498 15.2533 49.2565 16.8803 49.2565 18.9325ZM33.1285 17.5736V20.7352H36.9685C38.5803 20.7352 39.794 20.689 40.6094 20.5965C41.4437 20.4856 42.0221 20.3192 42.3445 20.0973C42.6669 19.8755 42.828 19.5519 42.828 19.1267C42.828 18.7199 42.6763 18.4056 42.3729 18.1837C42.0695 17.9619 41.5006 17.8047 40.6663 17.7123C39.8319 17.6198 38.5993 17.5736 36.9685 17.5736H33.1285ZM64.1843 32.6328C59.8418 32.6328 56.6467 31.7176 54.5987 29.8872C52.5507 28.0383 51.5267 25.4499 51.5267 22.1219C51.5267 18.8308 52.5412 16.2609 54.5702 14.412C56.6183 12.5631 59.8228 11.6387 64.1843 11.6387C68.5648 11.6387 71.7695 12.5631 73.7985 14.412C75.8465 16.2609 76.8705 18.8308 76.8705 22.1219C76.8705 25.4684 75.856 28.0568 73.827 29.8872C71.7979 31.7176 68.5837 32.6328 64.1843 32.6328ZM64.1843 26.9752C66.2892 26.9752 67.8062 26.5869 68.7354 25.8104C69.6646 25.0154 70.1292 23.7859 70.1292 22.1219C70.1292 20.4948 69.6646 19.2838 68.7354 18.4888C67.8062 17.6938 66.2892 17.2963 64.1843 17.2963C62.0984 17.2963 60.5908 17.6938 59.6616 18.4888C58.7326 19.2838 58.268 20.4948 58.268 22.1219C58.268 23.7674 58.7326 24.9877 59.6616 25.7827C60.5908 26.5777 62.0984 26.9752 64.1843 26.9752ZM81.8685 32.6328C81.0341 32.6328 80.323 32.3462 79.7351 31.7731C79.1473 31.1814 78.8533 30.4789 78.8533 29.6653C78.8533 28.8518 79.1473 28.1585 79.7351 27.5853C80.323 27.0122 81.0341 26.7256 81.8685 26.7256C82.6839 26.7256 83.3855 27.0214 83.9733 27.6131C84.5802 28.1862 84.8836 28.8703 84.8836 29.6653C84.8836 30.4789 84.5802 31.1814 83.9733 31.7731C83.3855 32.3462 82.6839 32.6328 81.8685 32.6328ZM93.8282 32.3555H86.8877C87.0394 28.7501 87.1153 25.3944 87.1153 22.2883C87.1153 19.1637 87.0394 15.8079 86.8877 12.2211H107.026C106.988 13.7372 106.969 14.8927 106.969 15.6877C106.969 16.6677 106.979 17.4072 106.998 17.9064H93.8282V32.3555ZM127.253 32.3555C126.892 31.3016 126.409 29.9797 125.802 28.3896H116.728L115.306 32.3555H108.167L116.131 12.2211H126.599L134.62 32.3555H127.253ZM124.181 24.0632C123.46 22.1219 122.721 20.1805 121.962 18.2392L121.279 16.4365C120.616 18.119 119.639 20.6613 118.35 24.0632H124.181ZM148.199 19.7923C150.796 19.7923 152.835 20.0604 154.314 20.5965C155.793 21.1142 156.827 21.8353 157.415 22.7597C158.002 23.6842 158.296 24.8213 158.296 26.1709C158.296 28.1308 157.557 29.6469 156.078 30.7192C154.599 31.7916 151.972 32.3277 148.199 32.3277H143.135V32.3555H136.138C136.29 28.7686 136.366 25.4129 136.366 22.2883C136.366 19.1637 136.29 15.8079 136.138 12.2211H157.102V17.7955H143.135V19.7923H148.199ZM147.061 27.5299C148.369 27.5299 149.355 27.4837 150.018 27.3912C150.702 27.2988 151.176 27.1509 151.441 26.9475C151.726 26.7441 151.868 26.439 151.868 26.0323C151.868 25.6255 151.726 25.3112 151.441 25.0893C151.157 24.8675 150.673 24.7103 149.991 24.6179C149.308 24.5254 148.331 24.4792 147.061 24.4792H143.135V27.5299H147.061Z" fill="white"/>
<path d="M6.05394 43.8094H3.72149V49.6888H3.02934V43.8094H0.696899V43.2177H6.05394V43.8094ZM13.1166 46.3516C13.578 46.444 13.9288 46.6258 14.1691 46.897C14.4093 47.162 14.5294 47.5102 14.5294 47.9416C14.5294 48.5025 14.3239 48.9338 13.9131 49.2358C13.5085 49.5379 12.9112 49.6888 12.1211 49.6888H9.18176V43.2177H11.9409C12.6488 43.2177 13.202 43.3594 13.6002 43.643C13.9984 43.9265 14.1975 44.3363 14.1975 44.8725C14.1975 45.2361 14.1027 45.5443 13.9131 45.7969C13.7234 46.0434 13.458 46.2283 13.1166 46.3516ZM9.87397 46.1482H11.903C12.415 46.1482 12.8069 46.0465 13.0787 45.8431C13.3568 45.6398 13.4959 45.3439 13.4959 44.9557C13.4959 44.5674 13.3568 44.2716 13.0787 44.0682C12.8069 43.8648 12.415 43.7631 11.903 43.7631H9.87397V46.1482ZM12.1211 49.1434C13.2651 49.1434 13.8372 48.7274 13.8372 47.8954C13.8372 47.0819 13.2651 46.6751 12.1211 46.6751H9.87397V49.1434H12.1211ZM21.0907 49.7443C20.4334 49.7443 19.836 49.6026 19.2987 49.319C18.7678 49.0294 18.3506 48.635 18.0472 48.1358C17.7501 47.6366 17.6016 47.0757 17.6016 46.4533C17.6016 45.8308 17.7501 45.27 18.0472 44.7708C18.3506 44.2716 18.7678 43.8803 19.2987 43.5967C19.836 43.3071 20.4334 43.1622 21.0907 43.1622C21.7482 43.1622 22.3392 43.304 22.8638 43.5875C23.3947 43.871 23.8119 44.2654 24.1153 44.7708C24.4187 45.27 24.5704 45.8308 24.5704 46.4533C24.5704 47.0757 24.4187 47.6396 24.1153 48.145C23.8119 48.6442 23.3947 49.0355 22.8638 49.319C22.3392 49.6026 21.7482 49.7443 21.0907 49.7443ZM21.0907 49.1342C21.6154 49.1342 22.0895 49.0202 22.513 48.7921C22.9365 48.5579 23.2683 48.2374 23.5085 47.8307C23.7488 47.4178 23.8688 46.9587 23.8688 46.4533C23.8688 45.9479 23.7488 45.4918 23.5085 45.0851C23.2683 44.6722 22.9365 44.3517 22.513 44.1237C22.0895 43.8895 21.6154 43.7724 21.0907 43.7724C20.5661 43.7724 20.0889 43.8895 19.659 44.1237C19.2356 44.3517 18.9005 44.6722 18.654 45.0851C18.4138 45.4918 18.2937 45.9479 18.2937 46.4533C18.2937 46.9587 18.4138 47.4178 18.654 47.8307C18.9005 48.2374 19.2356 48.5579 19.659 48.7921C20.0889 49.0202 20.5661 49.1342 21.0907 49.1342ZM28.141 43.2177H28.8332V48.5795L33.0809 43.2177H33.7162V49.6888H33.024V44.3363L28.7763 49.6888H28.141V43.2177ZM30.9096 42.7462C30.4356 42.7462 30.0594 42.6415 29.7813 42.4319C29.5095 42.2224 29.3705 41.9297 29.3642 41.5537H29.8856C29.892 41.8002 29.9868 41.9944 30.1701 42.1361C30.3534 42.2778 30.5999 42.3487 30.9096 42.3487C31.213 42.3487 31.4564 42.2778 31.6397 42.1361C31.8293 41.9944 31.9273 41.8002 31.9336 41.5537H32.4551C32.4488 41.9297 32.3066 42.2224 32.0285 42.4319C31.7504 42.6415 31.3774 42.7462 30.9096 42.7462ZM46.4492 43.8094H42.9126L42.9221 49.6888H42.2299V43.2177H46.4492V43.8094ZM51.5648 49.7443C50.9074 49.7443 50.3101 49.6026 49.7728 49.319C49.2418 49.0294 48.8247 48.635 48.5213 48.1358C48.2242 47.6366 48.0756 47.0757 48.0756 46.4533C48.0756 45.8308 48.2242 45.27 48.5213 44.7708C48.8247 44.2716 49.2418 43.8803 49.7728 43.5967C50.3101 43.3071 50.9074 43.1622 51.5648 43.1622C52.2222 43.1622 52.8132 43.304 53.3378 43.5875C53.8688 43.871 54.286 44.2654 54.5894 44.7708C54.8928 45.27 55.0445 45.8308 55.0445 46.4533C55.0445 47.0757 54.8928 47.6396 54.5894 48.145C54.286 48.6442 53.8688 49.0355 53.3378 49.319C52.8132 49.6026 52.2222 49.7443 51.5648 49.7443ZM51.5648 49.1342C52.0895 49.1342 52.5636 49.0202 52.987 48.7921C53.4106 48.5579 53.7424 48.2374 53.9826 47.8307C54.2228 47.4178 54.3429 46.9587 54.3429 46.4533C54.3429 45.9479 54.2228 45.4918 53.9826 45.0851C53.7424 44.6722 53.4106 44.3517 52.987 44.1237C52.5636 43.8895 52.0895 43.7724 51.5648 43.7724C51.0402 43.7724 50.563 43.8895 50.1331 44.1237C49.7096 44.3517 49.3746 44.6722 49.1281 45.0851C48.8879 45.4918 48.7678 45.9479 48.7678 46.4533C48.7678 46.9587 48.8879 47.4178 49.1281 47.8307C49.3746 48.2374 49.7096 48.5579 50.1331 48.7921C50.563 49.0202 51.0402 49.1342 51.5648 49.1342ZM62.8652 43.8094H60.5328V49.6888H59.8406V43.8094H57.508V43.2177H62.8652V43.8094ZM68.8113 49.7443C68.1535 49.7443 67.5562 49.6026 67.0193 49.319C66.4883 49.0294 66.0711 48.635 65.7677 48.1358C65.4702 47.6366 65.3221 47.0757 65.3221 46.4533C65.3221 45.8308 65.4702 45.27 65.7677 44.7708C66.0711 44.2716 66.4883 43.8803 67.0193 43.5967C67.5562 43.3071 68.1535 43.1622 68.8113 43.1622C69.4685 43.1622 70.0593 43.304 70.5843 43.5875C71.1153 43.871 71.5325 44.2654 71.8359 44.7708C72.1393 45.27 72.291 45.8308 72.291 46.4533C72.291 47.0757 72.1393 47.6396 71.8359 48.145C71.5325 48.6442 71.1153 49.0355 70.5843 49.319C70.0593 49.6026 69.4685 49.7443 68.8113 49.7443ZM68.8113 49.1342C69.3357 49.1342 69.8098 49.0202 70.2335 48.7921C70.6566 48.5579 70.9884 48.2374 71.229 47.8307C71.469 47.4178 71.5893 46.9587 71.5893 46.4533C71.5893 45.9479 71.469 45.4918 71.229 45.0851C70.9884 44.6722 70.6566 44.3517 70.2335 44.1237C69.8098 43.8895 69.3357 43.7724 68.8113 43.7724C68.2862 43.7724 67.8092 43.8895 67.3796 44.1237C66.9559 44.3517 66.621 44.6722 66.3745 45.0851C66.1339 45.4918 66.0142 45.9479 66.0142 46.4533C66.0142 46.9587 66.1339 47.4178 66.3745 47.8307C66.621 48.2374 66.9559 48.5579 67.3796 48.7921C67.8092 49.0202 68.2862 49.1342 68.8113 49.1342ZM79.7962 46.3516C80.2578 46.444 80.6086 46.6258 80.8486 46.897C81.0886 47.162 81.2089 47.5102 81.2089 47.9416C81.2089 48.5025 81.0033 48.9338 80.5926 49.2358C80.1879 49.5379 79.5905 49.6888 78.8006 49.6888H75.8613V43.2177H78.6205C79.3286 43.2177 79.8815 43.3594 80.2797 43.643C80.6779 43.9265 80.8771 44.3363 80.8771 44.8725C80.8771 45.2361 80.7822 45.5443 80.5926 45.7969C80.403 46.0434 80.1375 46.2283 79.7962 46.3516ZM76.5535 46.1482H78.5825C79.0945 46.1482 79.4862 46.0465 79.7582 45.8431C80.0362 45.6398 80.1754 45.3439 80.1754 44.9557C80.1754 44.5674 80.0362 44.2716 79.7582 44.0682C79.4862 43.8648 79.0945 43.7631 78.5825 43.7631H76.5535V46.1482ZM78.8006 49.1434C79.9449 49.1434 80.5168 48.7274 80.5168 47.8954C80.5168 47.0819 79.9449 46.6751 78.8006 46.6751H76.5535V49.1434H78.8006ZM87.6379 45.5288C88.4213 45.5288 89.0187 45.7014 89.4299 46.0465C89.8471 46.3916 90.0557 46.897 90.0557 47.5626C90.0557 48.259 89.8341 48.789 89.392 49.1526C88.9559 49.5101 88.3236 49.6888 87.4957 49.6888H84.8599V43.2177H85.552V45.5288H87.6379ZM87.4768 49.1434C88.0895 49.1434 88.5541 49.0109 88.8705 48.7459C89.1929 48.4809 89.3541 48.0895 89.3541 47.5718C89.3541 46.5796 88.7283 46.0835 87.4768 46.0835H85.552V49.1434H87.4768ZM91.203 43.2177H91.8951V49.6888H91.203V43.2177ZM96.0243 43.2177H96.7165V48.5795L100.964 43.2177H101.599V49.6888H100.907V44.3363L96.6596 49.6888H96.0243V43.2177ZM98.7929 42.7462C98.3188 42.7462 97.9425 42.6415 97.6646 42.4319C97.3926 42.2224 97.2539 41.9297 97.2474 41.5537H97.7689C97.7754 41.8002 97.8702 41.9944 98.0533 42.1361C98.2365 42.2778 98.483 42.3487 98.7929 42.3487C99.0963 42.3487 99.3399 42.2778 99.523 42.1361C99.7126 41.9944 99.8104 41.8002 99.8169 41.5537H100.338C100.332 41.9297 100.19 42.2224 99.9117 42.4319C99.6338 42.6415 99.2605 42.7462 98.7929 42.7462ZM110.113 43.2177H114.968V43.8001H110.805V45.9171H112.977C113.761 45.9171 114.354 46.0742 114.759 46.3886C115.17 46.7029 115.375 47.1589 115.375 47.7567C115.375 48.3792 115.154 48.8568 114.712 49.1896C114.276 49.5224 113.647 49.6888 112.825 49.6888H110.113V43.2177ZM112.815 49.1434C113.429 49.1434 113.89 49.0294 114.2 48.8014C114.516 48.5733 114.674 48.2344 114.674 47.7845C114.674 47.3407 114.519 47.011 114.209 46.7953C113.906 46.5734 113.441 46.4625 112.815 46.4625H110.805V49.1434H112.815ZM118.898 43.2177H119.591V48.5795L123.838 43.2177H124.473V49.6888H123.781V44.3363L119.534 49.6888H118.898V43.2177ZM131.492 46.3054C131.928 46.4101 132.27 46.6012 132.516 46.8785C132.769 47.1558 132.895 47.4886 132.895 47.8769C132.895 48.2529 132.775 48.5826 132.535 48.8661C132.295 49.1496 131.976 49.3683 131.577 49.5224C131.179 49.6703 130.746 49.7443 130.279 49.7443C129.836 49.7443 129.4 49.6765 128.97 49.5409C128.546 49.3992 128.164 49.1896 127.823 48.9123L128.079 48.4223C128.369 48.6627 128.701 48.8476 129.074 48.977C129.447 49.1002 129.823 49.1619 130.203 49.1619C130.563 49.1619 130.895 49.1064 131.198 48.9955C131.502 48.8846 131.742 48.7274 131.919 48.524C132.102 48.3145 132.194 48.068 132.194 47.7845C132.194 47.4085 132.042 47.1189 131.739 46.9155C131.435 46.7121 131.009 46.6104 130.459 46.6104H129.036V46.0558H130.421C130.888 46.0558 131.252 45.9603 131.511 45.7692C131.777 45.572 131.909 45.3008 131.909 44.9557C131.909 44.5736 131.742 44.2746 131.407 44.059C131.071 43.8371 130.651 43.7262 130.146 43.7262C129.829 43.7262 129.511 43.7724 129.188 43.8648C128.866 43.9511 128.559 44.0836 128.268 44.2623L128.031 43.6984C128.689 43.3163 129.4 43.1253 130.165 43.1253C130.613 43.1253 131.024 43.1962 131.397 43.3379C131.77 43.4796 132.064 43.683 132.279 43.948C132.5 44.2131 132.611 44.5242 132.611 44.8817C132.611 45.2268 132.513 45.5258 132.317 45.7784C132.121 46.025 131.846 46.2006 131.492 46.3054ZM142.08 43.2177V49.6888H141.388V46.7029H137.235V49.6888H136.533V43.2177H137.235V46.102H141.388V43.2177H142.08ZM150.91 49.0972V49.6888H146.217V43.2177H150.768V43.8094H146.919V46.1112H150.351V46.6936H146.919V49.0972H150.91ZM157.228 49.7443C156.57 49.7443 155.976 49.6026 155.445 49.319C154.92 49.0355 154.507 48.6442 154.203 48.145C153.906 47.6396 153.758 47.0757 153.758 46.4533C153.758 45.8308 153.906 45.27 154.203 44.7708C154.507 44.2654 154.924 43.871 155.455 43.5875C155.986 43.304 156.58 43.1622 157.237 43.1622C157.73 43.1622 158.186 43.2424 158.603 43.4026C159.02 43.5628 159.374 43.797 159.665 44.1052L159.219 44.5397C158.7 44.0282 158.046 43.7724 157.256 43.7724C156.731 43.7724 156.254 43.8895 155.825 44.1237C155.394 44.3578 155.057 44.6783 154.81 45.0851C154.57 45.4918 154.45 45.9479 154.45 46.4533C154.45 46.9587 154.57 47.4147 154.81 47.8214C155.057 48.2282 155.394 48.5487 155.825 48.7829C156.254 49.017 156.731 49.1342 157.256 49.1342C158.053 49.1342 158.707 48.8753 159.219 48.3576L159.665 48.7921C159.374 49.1002 159.016 49.3375 158.593 49.5039C158.176 49.6642 157.721 49.7443 157.228 49.7443Z" fill="white"/>
</svg>
