<svg width="61" height="48" viewBox="0 0 61 48" fill="none" xmlns="http://www.w3.org/2000/svg">
<path id="Vector" d="M25.4167 0V5.70947L30.5 9.06947V5.05263H55.9167V42.9474H43.2083V48H61V0H25.4167ZM19.0625 7.57895L0 20.2105V48H38.125V20.2105L19.0625 7.57895ZM35.5833 10.1053V12.4547L39.6754 15.1579H40.6667V10.1053H35.5833ZM45.75 10.1053V15.1579H50.8333V10.1053H45.75ZM19.0625 13.8947L33.0417 22.7368V42.9474H25.4167V27.7895H12.7083V42.9474H5.08333V22.7368L19.0625 13.8947ZM45.75 20.2105V25.2632H50.8333V20.2105H45.75ZM45.75 30.3158V35.3684H50.8333V30.3158H45.75Z" fill="#A6B891"/>
</svg>
