<svg width="58" height="58" viewBox="0 0 58 58" fill="none" xmlns="http://www.w3.org/2000/svg">
<g id="Group 1000005158">
<path id="Vector" d="M53.8571 0H29C27.9016 0.00109677 26.8485 0.437927 26.0718 1.21463C25.2951 1.99132 24.8582 3.04444 24.8571 4.14286V24.8571H4.14286C3.04444 24.8582 1.99132 25.2951 1.21463 26.0718C0.437927 26.8485 0.00109677 27.9016 0 29V58H58V4.14286C57.9989 3.04444 57.5621 1.99132 56.7854 1.21463C56.0087 0.437927 54.9556 0.00109677 53.8571 0ZM14.5 53.8571V39.3571H22.7857V53.8571H14.5ZM53.8571 53.8571H26.9286V37.2857C26.9286 36.7363 26.7103 36.2095 26.3219 35.821C25.9334 35.4325 25.4065 35.2143 24.8571 35.2143H12.4286C11.8792 35.2143 11.3523 35.4325 10.9639 35.821C10.5754 36.2095 10.3571 36.7363 10.3571 37.2857V53.8571H4.14286V29H29V4.14286H53.8571V53.8571Z" fill="#A6B891"/>
<path id="Vector_2" d="M33.1426 12.4287H37.2854V16.5716H33.1426V12.4287ZM45.5711 12.4287H49.714V16.5716H45.5711V12.4287ZM33.1426 24.8573H37.2854V29.0001H33.1426V24.8573ZM45.5711 24.8573H49.714V29.0001H45.5711V24.8573ZM33.1426 37.2859H37.2854V41.4287H33.1426V37.2859ZM45.5711 37.2859H49.714V41.4287H45.5711V37.2859Z" fill="#A6B891"/>
</g>
</svg>
