<svg width="60" height="60" viewBox="0 0 60 60" fill="none" xmlns="http://www.w3.org/2000/svg">
<path id="Vector" d="M44.27 45.2475C43.765 45.6275 43.17 45.8175 42.485 45.8175C41.88 45.8175 41.3075 45.6275 40.765 45.2475C40.22 44.8675 39.9475 44.315 39.9475 43.5975V24.065H39.89L32.43 39.2075C32.2062 39.6942 31.8775 40.1253 31.4675 40.47C31.105 40.75 30.625 40.89 30.0225 40.89C29.4225 40.89 28.94 40.75 28.58 40.47C28.1693 40.1259 27.8405 39.6946 27.6175 39.2075L20.1575 24.0675H20.1V43.595C20.1145 43.92 20.0439 44.2431 19.8953 44.5325C19.7466 44.8219 19.5251 45.0674 19.2525 45.245C18.7413 45.6101 18.1306 45.8099 17.5025 45.8175C16.815 45.8175 16.2325 45.6275 15.7475 45.2475C15.265 44.8675 15.0225 44.315 15.0225 43.5975V17.395C15.0225 16.635 15.2625 15.9225 15.7475 15.2625C16.2275 14.6025 17.09 14.2725 18.3375 14.2725C19.2625 14.2725 19.975 14.4825 20.4775 14.9025C20.9775 15.325 21.4275 15.955 21.8325 16.795L30.025 33.68H30.085L38.2175 16.795C38.6175 15.955 39.0725 15.325 39.575 14.9025C40.075 14.4825 40.7875 14.2725 41.7125 14.2725C42.9575 14.2725 43.8225 14.6025 44.3025 15.2625C44.785 15.925 45.0275 16.6375 45.0275 17.3975V43.5925C45.0275 44.3125 44.775 44.865 44.2725 45.2425L44.27 45.2475ZM29.94 55.6375C44.085 55.6375 55.6375 44.0375 55.6375 29.82C55.6375 15.77 44.13 4.3625 29.94 4.3625C15.755 4.3625 4.365 15.7025 4.365 29.82C4.365 43.795 16.1525 55.6375 29.94 55.6375ZM29.94 60C13.7375 60 0 46.2 0 29.82C0 13.2875 13.35 0 29.94 0C46.5325 0 60 13.35 60 29.82C60 46.4425 46.5 60 29.94 60Z" fill="#A6B891"/>
</svg>
