<svg width="60" height="60" viewBox="0 0 60 60" fill="none" xmlns="http://www.w3.org/2000/svg">
<g id="Group 1000005157">
<path id="Vector" d="M19.2856 17.142L22.3071 20.1634L27.8571 14.6349V45.3635L22.3071 39.8349L19.2856 42.8563L29.9999 53.5706L40.7142 42.8563L37.6928 39.8349L32.1428 45.3635V14.6349L37.6928 20.1634L40.7142 17.142L29.9999 6.42773L19.2856 17.142Z" fill="#A6B891"/>
<path id="Vector_2" d="M55.7143 60H4.28571C3.14942 59.9989 2.05999 59.547 1.25651 58.7435C0.453028 57.94 0.00113459 56.8506 0 55.7143V4.28571C0.00113459 3.14942 0.453028 2.05999 1.25651 1.25651C2.05999 0.453028 3.14942 0.00113459 4.28571 0H55.7143C56.8506 0.00113459 57.94 0.453028 58.7435 1.25651C59.547 2.05999 59.9989 3.14942 60 4.28571V55.7143C59.9989 56.8506 59.547 57.94 58.7435 58.7435C57.94 59.547 56.8506 59.9989 55.7143 60ZM4.28571 4.28571V55.7143H55.7143V4.28571H4.28571Z" fill="#A6B891"/>
</g>
</svg>
