<svg width="43" height="62" viewBox="0 0 43 62" fill="none" xmlns="http://www.w3.org/2000/svg">
<g id="Group">
<path id="Vector" d="M22.4637 26.1077V24.0005H23.0352H24.5068L22.4637 27.0651V26.1077ZM20.5352 21.5005V23.6077H19.9637H18.4921L20.5352 20.5431V21.5005Z" fill="#A6B891" stroke="#A6B891" stroke-width="5"/>
<path id="Vector_2" d="M21.5039 0.571458C21.5035 0.571457 21.5031 0.571458 21.5027 0.571458C21.5031 0.571458 21.5035 0.571458 21.5039 0.571458Z" fill="#A6B891" stroke="#A6B891" stroke-width="5"/>
<g id="Vector_3">
<mask id="path-3-inside-1_123_57" fill="white">
<path d="M10.7495 49.1431C10.7495 48.7358 10.9113 48.3452 11.1993 48.0572C11.4873 47.7692 11.8779 47.6074 12.2852 47.6074H30.7139C31.1212 47.6074 31.5119 47.7692 31.7999 48.0572C32.0879 48.3452 32.2497 48.7358 32.2497 49.1431C32.2497 49.5504 32.0879 49.9411 31.7999 50.2291C31.5119 50.5171 31.1212 50.6789 30.7139 50.6789H12.2852C11.8779 50.6789 11.4873 50.5171 11.1993 50.2291C10.9113 49.9411 10.7495 49.5504 10.7495 49.1431Z"/>
</mask>
<path d="M10.7495 49.1431C10.7495 48.7358 10.9113 48.3452 11.1993 48.0572C11.4873 47.7692 11.8779 47.6074 12.2852 47.6074H30.7139C31.1212 47.6074 31.5119 47.7692 31.7999 48.0572C32.0879 48.3452 32.2497 48.7358 32.2497 49.1431C32.2497 49.5504 32.0879 49.9411 31.7999 50.2291C31.5119 50.5171 31.1212 50.6789 30.7139 50.6789H12.2852C11.8779 50.6789 11.4873 50.5171 11.1993 50.2291C10.9113 49.9411 10.7495 49.5504 10.7495 49.1431Z" fill="#A6B891"/>
<path d="M15.7495 49.1431C15.7495 50.0619 15.3845 50.9431 14.7348 51.5928L7.66378 44.5217C6.43808 45.7474 5.74951 47.4098 5.74951 49.1431H15.7495ZM14.7348 51.5928C14.0852 52.2424 13.204 52.6074 12.2852 52.6074V42.6074C10.5519 42.6074 8.88948 43.296 7.66378 44.5217L14.7348 51.5928ZM12.2852 52.6074H30.7139V42.6074H12.2852V52.6074ZM30.7139 52.6074C29.7952 52.6074 28.914 52.2424 28.2643 51.5928L35.3354 44.5217C34.1097 43.296 32.4473 42.6074 30.7139 42.6074V52.6074ZM28.2643 51.5928C27.6146 50.9431 27.2497 50.0619 27.2497 49.1431H37.2497C37.2497 47.4098 36.5611 45.7474 35.3354 44.5217L28.2643 51.5928ZM27.2497 49.1431C27.2497 48.2244 27.6146 47.3432 28.2643 46.6935L35.3354 53.7646C36.5611 52.5389 37.2497 50.8765 37.2497 49.1431H27.2497ZM28.2643 46.6935C28.914 46.0438 29.7952 45.6789 30.7139 45.6789V55.6789C32.4473 55.6789 34.1097 54.9903 35.3354 53.7646L28.2643 46.6935ZM30.7139 45.6789H12.2852V55.6789H30.7139V45.6789ZM12.2852 45.6789C13.204 45.6789 14.0852 46.0438 14.7348 46.6935L7.66378 53.7646C8.88948 54.9903 10.5519 55.6789 12.2852 55.6789V45.6789ZM14.7348 46.6935C15.3845 47.3432 15.7495 48.2244 15.7495 49.1431H5.74951C5.74951 50.8765 6.43808 52.5389 7.66378 53.7646L14.7348 46.6935Z" fill="#A6B891" mask="url(#path-3-inside-1_123_57)"/>
</g>
<g id="Vector_4">
<mask id="path-5-inside-2_123_57" fill="white">
<path fill-rule="evenodd" clip-rule="evenodd" d="M10.7495 53.75H32.2497V58.3572C32.2497 59.1718 31.9261 59.953 31.3501 60.529C30.774 61.105 29.9928 61.4286 29.1782 61.4286H13.821C13.0064 61.4286 12.2251 61.105 11.6491 60.529C11.0731 59.953 10.7495 59.1718 10.7495 58.3572V53.75ZM13.821 56.8214H29.1782V58.3572H13.821V56.8214Z"/>
</mask>
<path fill-rule="evenodd" clip-rule="evenodd" d="M10.7495 53.75H32.2497V58.3572C32.2497 59.1718 31.9261 59.953 31.3501 60.529C30.774 61.105 29.9928 61.4286 29.1782 61.4286H13.821C13.0064 61.4286 12.2251 61.105 11.6491 60.529C11.0731 59.953 10.7495 59.1718 10.7495 58.3572V53.75ZM13.821 56.8214H29.1782V58.3572H13.821V56.8214Z" fill="#A6B891"/>
<path d="M10.7495 53.75V48.75H5.74951V53.75H10.7495ZM32.2497 53.75H37.2497V48.75H32.2497V53.75ZM13.821 56.8214V51.8214H8.82096V56.8214H13.821ZM29.1782 56.8214H34.1782V51.8214H29.1782V56.8214ZM29.1782 58.3572V63.3572H34.1782V58.3572H29.1782ZM13.821 58.3572H8.82096V63.3572H13.821V58.3572ZM10.7495 58.75H32.2497V48.75H10.7495V58.75ZM27.2497 53.75V58.3572H37.2497V53.75H27.2497ZM27.2497 58.3572C27.2497 57.8457 27.4528 57.3552 27.8145 56.9935L34.8856 64.0646C36.3993 62.5509 37.2497 60.4979 37.2497 58.3572H27.2497ZM27.8145 56.9935C28.1762 56.6318 28.6667 56.4286 29.1782 56.4286V66.4286C31.3189 66.4286 33.3719 65.5783 34.8856 64.0646L27.8145 56.9935ZM29.1782 56.4286H13.821V66.4286H29.1782V56.4286ZM13.821 56.4286C14.3324 56.4286 14.823 56.6318 15.1847 56.9935L8.11359 64.0646C9.62728 65.5783 11.6803 66.4286 13.821 66.4286V56.4286ZM15.1847 56.9935C15.5463 57.3552 15.7495 57.8457 15.7495 58.3572H5.74951C5.74951 60.4979 6.59989 62.5509 8.11359 64.0646L15.1847 56.9935ZM15.7495 58.3572V53.75H5.74951V58.3572H15.7495ZM13.821 61.8215H29.1782V51.8214H13.821V61.8215ZM24.1782 56.8214V58.3572H34.1782V56.8214H24.1782ZM29.1782 53.3572H13.821V63.3572H29.1782V53.3572ZM18.821 58.3572V56.8214H8.82096V58.3572H18.821Z" fill="#A6B891" mask="url(#path-5-inside-2_123_57)"/>
</g>
</g>
</svg>
