<svg width="61" height="61" viewBox="0 0 61 61" fill="none" xmlns="http://www.w3.org/2000/svg">
<g id="Group">
<path id="Vector" d="M3 9.11111C3 7.49034 3.64385 5.93596 4.7899 4.7899C5.93596 3.64385 7.49034 3 9.11111 3H51.8889C53.5097 3 55.064 3.64385 56.2101 4.7899C57.3562 5.93596 58 7.49034 58 9.11111V51.8889C58 53.5097 57.3562 55.064 56.2101 56.2101C55.064 57.3562 53.5097 58 51.8889 58H9.11111C7.49034 58 5.93596 57.3562 4.7899 56.2101C3.64385 55.064 3 53.5097 3 51.8889V9.11111Z" stroke="#A6B891" stroke-width="5" stroke-linecap="round" stroke-linejoin="round"/>
<path id="Vector_2" d="M21.3335 42.7228V18.2783H33.5557C35.1765 18.2783 36.7309 18.9222 37.8769 20.0682C39.023 21.2143 39.6668 22.7687 39.6668 24.3894C39.6668 26.0102 39.023 27.5646 37.8769 28.7106C36.7309 29.8567 35.1765 30.5005 33.5557 30.5005H21.3335" stroke="#A6B891" stroke-width="5" stroke-linecap="round" stroke-linejoin="round"/>
</g>
</svg>
