<svg width="50" height="55" viewBox="0 0 50 55" fill="none" xmlns="http://www.w3.org/2000/svg">
<path id="Vector" d="M11.1111 24.75H16.6667V30.25H11.1111V24.75ZM50 11V49.5C50 52.525 47.5 55 44.4444 55H5.55556C4.08213 55 2.66905 54.4205 1.62718 53.3891C0.585316 52.3576 0 50.9587 0 49.5L0.0277778 11C0.0277778 7.975 2.47222 5.5 5.55556 5.5H8.33333V0H13.8889V5.5H36.1111V0H41.6667V5.5H44.4444C47.5 5.5 50 7.975 50 11ZM5.55556 16.5H44.4444V11H5.55556V16.5ZM44.4444 49.5V22H5.55556V49.5H44.4444ZM33.3333 30.25H38.8889V24.75H33.3333V30.25ZM22.2222 30.25H27.7778V24.75H22.2222V30.25Z" fill="#A6B891"/>
</svg>
