<svg width="49" height="52" viewBox="0 0 49 52" fill="none" xmlns="http://www.w3.org/2000/svg">
<g id="Group 1000005159">
<path id="Vector" d="M43.842 0H18.0523C15.2077 0 12.8943 2.31334 12.8943 5.15795V19.5641L0.75509 31.7034C0.394525 32.064 0.14899 32.5235 0.0495253 33.0237C-0.0499395 33.5239 0.00113204 34.0424 0.196283 34.5135C0.391435 34.9847 0.721903 35.3875 1.14591 35.6709C1.56992 35.9542 2.06843 36.1056 2.57843 36.1057V49.0005C2.57843 49.6845 2.85014 50.3405 3.33379 50.8242C3.81744 51.3078 4.47342 51.5795 5.1574 51.5795H46.421C47.105 51.5795 47.761 51.3078 48.2446 50.8242C48.7283 50.3405 49 49.6845 49 49.0005V5.15795C49 2.31334 46.6867 0 43.842 0ZM23.2102 46.4216H7.73638V32.0154L15.4733 24.2785L23.2102 32.0154V46.4216ZM43.842 46.4216H28.3682V36.1057C28.8787 36.1068 29.3781 35.9562 29.8029 35.673C30.2277 35.3898 30.5588 34.9868 30.7542 34.5151C30.9496 34.0435 31.0004 33.5244 30.9002 33.0237C30.8 32.5231 30.5534 32.0635 30.1915 31.7034L18.0523 19.5641V5.15795H43.842V46.4216Z" fill="#A6B891"/>
<path id="Vector_2" d="M23.2104 10.3164H28.3684V15.4744H23.2104V10.3164ZM33.5263 10.3164H38.6843V15.4744H33.5263V10.3164ZM33.5263 20.7123H38.6843V25.7903H33.5263V20.7123ZM33.5263 30.9482H38.6843V36.1062H33.5263V30.9482ZM12.8945 33.5272H18.0525V38.6851H12.8945V33.5272Z" fill="#A6B891"/>
</g>
</svg>
