<svg width="17" height="17" viewBox="0 0 17 17" fill="none" xmlns="http://www.w3.org/2000/svg">
<path fill-rule="evenodd" clip-rule="evenodd" d="M10.1196 1.63045C9.96628 1.60847 9.81222 1.65381 9.68966 1.75137C9.56368 1.8503 9.48494 1.9932 9.46783 2.15328C9.43154 2.47687 9.66502 2.76954 9.98819 2.80596C12.2168 3.05466 13.9491 4.79078 14.1997 7.02637C14.2332 7.32592 14.4845 7.55195 14.7844 7.55195C14.807 7.55195 14.8289 7.55057 14.8515 7.54783C15.0083 7.53065 15.148 7.45302 15.2465 7.32935C15.3445 7.20569 15.389 7.05179 15.3712 6.89446C15.0589 4.10513 12.9001 1.9403 10.1196 1.63045ZM10.1624 4.02433C9.83516 3.96387 9.53458 4.17273 9.47228 4.4922C9.40997 4.81167 9.61948 5.12358 9.93786 5.1861C10.8964 5.37297 11.6366 6.11496 11.8242 7.0768V7.07749C11.8776 7.35436 12.1213 7.55566 12.402 7.55566C12.4397 7.55566 12.4773 7.55222 12.5157 7.54535C12.8341 7.48146 13.0436 7.17023 12.9813 6.85008C12.7012 5.4135 11.5955 4.30395 10.1624 4.02433ZM11.25 10.6248C11.5604 10.4458 11.911 10.2436 12.3532 10.3377C12.7538 10.4222 14.119 11.5304 14.4928 11.9144C14.738 12.1659 14.8742 12.4256 14.8954 12.6853C14.9324 13.7041 13.548 14.8673 13.296 15.0122C12.9612 15.2534 12.5716 15.375 12.1341 15.375C11.687 15.375 11.1886 15.2479 10.6449 14.9944C7.69532 13.7632 3.18943 9.34633 1.99808 6.41959C1.50374 5.32996 1.50032 4.43133 1.98986 3.75598C2.185 3.43926 3.29761 2.11536 4.29382 2.15726C4.55879 2.17994 4.81623 2.31597 5.06888 2.5633C5.45093 2.93773 6.53136 4.30698 6.61489 4.70889C6.70732 5.15546 6.50466 5.51065 6.32459 5.82256C6.28618 5.88961 6.23443 5.96918 6.17774 6.05635C5.96257 6.3872 5.67619 6.82755 5.77753 7.10868C6.50397 8.8922 8.18213 10.4483 9.96641 11.1793C10.2423 11.2796 10.6825 10.9912 11.0122 10.7751C11.0981 10.7187 11.1766 10.6673 11.2427 10.629L11.25 10.6248Z" fill="#000912"/>
</svg>
