<svg width="17" height="12" viewBox="0 0 17 12" fill="none" xmlns="http://www.w3.org/2000/svg">
<path d="M0.984766 1.82701C1.08007 1.39675 1.31435 1.01259 1.64925 0.737446C1.98414 0.462298 2.39979 0.31247 2.82812 0.3125H14.1719C14.6002 0.31247 15.0159 0.462298 15.3508 0.737446C15.6856 1.01259 15.9199 1.39675 16.0152 1.82701L8.5 6.55947L0.984766 1.82701ZM0.9375 2.93927V9.85826L6.42315 6.39292L0.9375 2.93927ZM7.32876 6.96463L1.11805 10.8868C1.2715 11.2201 1.51369 11.5017 1.81643 11.6988C2.11918 11.8959 2.47002 12.0004 2.82812 12H14.1719C14.5299 12.0001 14.8806 11.8954 15.1832 11.6982C15.4858 11.5009 15.7278 11.2192 15.881 10.8858L9.6703 6.96366L8.5 7.70095L7.32876 6.96366V6.96463ZM10.5769 6.3939L16.0625 9.85826V2.93927L10.5769 6.39292V6.3939Z" fill="#000912"/>
</svg>
