<svg width="15" height="15" viewBox="0 0 15 15" fill="none" xmlns="http://www.w3.org/2000/svg">
<path d="M7.50001 0C11.6423 0 15 3.35775 15 7.5C15 11.6422 11.6423 15 7.50001 15C6.17459 15.0021 4.8725 14.6514 3.72751 13.9837L0.00301055 15L1.01701 11.274C0.34883 10.1286 -0.00220378 8.82599 1.04102e-05 7.5C1.04102e-05 3.35775 3.35776 0 7.50001 0ZM4.94401 3.975L4.79401 3.981C4.6969 3.98691 4.60199 4.01242 4.51501 4.056C4.43365 4.10207 4.35938 4.15967 4.29451 4.227C4.20451 4.31175 4.15351 4.38525 4.09876 4.4565C3.82135 4.81717 3.67199 5.25998 3.67426 5.715C3.67576 6.0825 3.77176 6.44025 3.92176 6.77475C4.22851 7.45125 4.73326 8.16749 5.39926 8.83124C5.55976 8.99099 5.71726 9.15149 5.88676 9.30074C6.7143 10.0293 7.70045 10.5548 8.76675 10.8352L9.19275 10.9005C9.3315 10.908 9.47025 10.8975 9.60975 10.8907C9.82818 10.8795 10.0415 10.8203 10.2345 10.7175C10.3327 10.6669 10.4286 10.6118 10.5218 10.5525C10.5218 10.5525 10.554 10.5315 10.6155 10.485C10.7168 10.41 10.779 10.3567 10.863 10.269C10.9253 10.2045 10.9793 10.1287 11.0205 10.0425C11.079 9.92024 11.1375 9.68699 11.1615 9.49274C11.1795 9.34424 11.1743 9.26324 11.172 9.21299C11.169 9.13274 11.1023 9.04949 11.0295 9.01424L10.593 8.81849C10.593 8.81849 9.9405 8.53424 9.5415 8.35274C9.49975 8.33451 9.45501 8.32409 9.4095 8.32199C9.35819 8.31672 9.30634 8.3225 9.25744 8.33893C9.20854 8.35536 9.16373 8.38206 9.126 8.41724C9.12225 8.41574 9.072 8.45849 8.52975 9.11549C8.49863 9.15732 8.45576 9.18892 8.40661 9.20629C8.35745 9.22365 8.30424 9.22599 8.25375 9.21299C8.2049 9.19989 8.15703 9.18335 8.1105 9.16349C8.01751 9.12449 7.98526 9.10949 7.92151 9.08249C7.49106 8.89465 7.09252 8.64086 6.74026 8.33024C6.64576 8.24775 6.55801 8.15774 6.46801 8.07074C6.17295 7.78817 5.9158 7.4685 5.70301 7.11975L5.65876 7.0485C5.62697 7.00062 5.60128 6.94897 5.58226 6.89475C5.55376 6.7845 5.62801 6.696 5.62801 6.696C5.62801 6.696 5.81026 6.4965 5.89501 6.3885C5.97751 6.2835 6.04726 6.1815 6.09226 6.10875C6.18076 5.96625 6.20851 5.82 6.16201 5.70675C5.95201 5.19375 5.73451 4.683 5.51101 4.176C5.46676 4.0755 5.33551 4.0035 5.21626 3.98925C5.17576 3.98475 5.13526 3.98025 5.09476 3.97725C4.99404 3.97224 4.89311 3.97325 4.79251 3.98025L4.94326 3.97425L4.94401 3.975Z" fill="#000912"/>
</svg>
